# xmcd
# 
# Track frame offsets:
#     150
#     21080
#     40360
#     54867
#     75065
#     91992
#     110132
#     126447
#     144895
#     160917
#     179185
# 
# Disc length: 2582
# 
# Revision: 0
# Processed by: cddbd v1.5.2PL0 Copyright (c) Steve Scherf et al.
# Submitted via: fre:ac v1.0.31
# 
DISCID=8b0a140b
DTITLE=Dinamita pa los pollos - Sin rodeos
DYEAR=1990
DGENRE=
TTITLE0=Pájaro de mal agüero
TTITLE1=Un agujero en el bolsillo
TTITLE2=La sombra de una cruz
TTITLE3=Somos 4 gatos
TTITLE4=No hay pavo, no hay Navidad
TTITLE5=Juana Calamidad
TTITLE6=Padrino Búfalo
TTITLE7=Río Grande
TTITLE8=Paseando al caimán
TTITLE9=Esta ciudad necesita un escándalo
TTITLE10=18 ruedas
EXTD=
EXTT0=
EXTT1=
EXTT2=
EXTT3=
EXTT4=
EXTT5=
EXTT6=
EXTT7=
EXTT8=
EXTT9=
EXTT10=
PLAYORDER=
